<?xml version="1.0" encoding="iso-8859-1"?>
<!-- Generator: Adobe Illustrator 19.0.0, SVG Export Plug-In . SVG Version: 6.00 Build 0)  -->
<svg version="1.1" id="Layer_1" xmlns="http://www.w3.org/2000/svg" xmlns:xlink="http://www.w3.org/1999/xlink" x="0px" y="0px"
	 viewBox="0 0 512 512" style="enable-background:new 0 0 512 512;" xml:space="preserve">
<circle style="fill:#FF8E31;" cx="256" cy="256" r="256"/>
<path style="fill:#ED7425;" d="M492.539,353.974L333.837,195.267l-5.893-5.893c-14.057-12.611-32.607-20.326-53.02-20.326
	c-36.974,0-68.052,25.303-76.803,59.538c-4.032-0.87-8.174-1.326-12.49-1.326c-19.507,0-36.716,9.623-47.219,24.433h-30.003
	c-0.986,0-1.861,0.832-1.861,1.83v3.94h-6.144v30.83l12.288,12.283h-4.28c-0.986,0-1.861,0.829-1.861,1.864v3.94h-6.144v30.787
	l174.093,174.098C373.151,504.21,456.325,441.321,492.539,353.974z"/>
<path style="fill:#FFFFFF;" d="M364.006,247.788c-3.377,0-6.676,0.366-9.861,1.039c0-0.189,0.015-0.343,0.015-0.525
	c0-43.786-35.487-79.263-79.258-79.263c-36.969,0-68.024,25.316-76.782,59.543c-4.017-0.87-8.197-1.352-12.475-1.352
	c-31.962,0-57.876,25.902-57.876,57.871c0,31.956,25.917,57.859,57.876,57.859h178.358c26.284,0,47.59-21.294,47.59-47.583
	C411.594,269.089,390.29,247.788,364.006,247.788z"/>
<path style="fill:#E1EFFA;" d="M261.12,257.469l-0.719,0.714l-0.74-0.719l-5.24-5.263c-0.33-0.323-0.806-0.509-1.331-0.509h-43.638
	l-4.306,4.303l-17.718,17.733l58.65,69.235h100.552L261.12,257.469z"/>
<rect x="114.406" y="294.067" style="fill:#283A4D;" width="132.71" height="6.49"/>
<path style="fill:#5D6D7E;" d="M254.961,292.216c0,1.024-0.832,1.856-1.846,1.856H108.408c-1.011,0-1.846-0.829-1.846-1.856v-38.697
	c0-1.021,0.835-1.851,1.846-1.851h144.704c1.014,0,1.846,0.829,1.846,1.851v38.697H254.961z"/>
<rect x="110.874" y="255.974" style="fill:#CEE2F2;" width="139.75" height="33.769"/>
<g>
	<path style="fill:#283A4D;" d="M241.252,272.855c0,2.158-1.741,3.896-3.891,3.896c-2.148,0-3.891-1.741-3.891-3.896
		c0-2.135,1.741-3.878,3.891-3.878S241.252,270.72,241.252,272.855z"/>
	<rect x="125.594" y="264.499" style="fill:#283A4D;" width="3.415" height="3.407"/>
	<rect x="136.141" y="264.499" style="fill:#283A4D;" width="3.415" height="3.407"/>
	<rect x="146.688" y="264.499" style="fill:#283A4D;" width="3.42" height="3.407"/>
	<rect x="157.235" y="264.499" style="fill:#283A4D;" width="3.42" height="3.407"/>
	<rect x="167.782" y="264.499" style="fill:#283A4D;" width="3.4" height="3.407"/>
	<rect x="125.594" y="277.837" style="fill:#283A4D;" width="3.415" height="3.412"/>
	<rect x="136.141" y="277.837" style="fill:#283A4D;" width="3.415" height="3.412"/>
	<rect x="146.688" y="277.837" style="fill:#283A4D;" width="3.42" height="3.412"/>
	<rect x="157.235" y="277.837" style="fill:#283A4D;" width="3.42" height="3.412"/>
	<rect x="167.782" y="277.837" style="fill:#283A4D;" width="3.4" height="3.412"/>
	<rect x="130.714" y="271.155" style="fill:#283A4D;" width="3.418" height="3.42"/>
	<rect x="141.261" y="271.155" style="fill:#283A4D;" width="3.428" height="3.42"/>
	<rect x="151.808" y="271.155" style="fill:#283A4D;" width="3.42" height="3.42"/>
	<rect x="162.355" y="271.155" style="fill:#283A4D;" width="3.402" height="3.42"/>
	<rect x="172.877" y="271.155" style="fill:#283A4D;" width="3.412" height="3.42"/>
	<rect x="190.285" y="271.155" style="fill:#283A4D;" width="29.189" height="3.42"/>
	<rect x="254.95" y="257.459" style="fill:#283A4D;" width="6.159" height="30.797"/>
</g>
<g>
	<path style="fill:#B8D1E6;" d="M259.013,260.523c0,0.527-0.438,0.97-0.968,0.97c-0.538,0-0.983-0.443-0.983-0.97
		c0-0.54,0.445-0.986,0.983-0.986C258.575,259.538,259.013,259.983,259.013,260.523z"/>
	<path style="fill:#B8D1E6;" d="M259.013,285.215c0,0.543-0.438,0.978-0.968,0.978c-0.538,0-0.983-0.435-0.983-0.978
		c0-0.532,0.445-0.975,0.983-0.975C258.575,284.239,259.013,284.682,259.013,285.215z"/>
</g>
<rect x="100.403" y="257.459" style="fill:#283A4D;" width="6.159" height="30.797"/>
<g>
	<path style="fill:#B8D1E6;" d="M104.463,260.523c0,0.527-0.443,0.97-0.98,0.97s-0.973-0.443-0.973-0.97
		c0-0.54,0.435-0.986,0.973-0.986S104.463,259.983,104.463,260.523z"/>
	<path style="fill:#B8D1E6;" d="M104.463,285.215c0,0.543-0.443,0.978-0.98,0.978s-0.973-0.435-0.973-0.978
		c0-0.532,0.435-0.975,0.973-0.975S104.463,284.682,104.463,285.215z"/>
</g>
<path style="fill:#5D6D7E;" d="M254.961,341.12c0,1.014-0.832,1.841-1.846,1.841H108.408c-1.011,0-1.846-0.827-1.846-1.841v-38.697
	c0-1.024,0.835-1.861,1.846-1.861h144.704c1.014,0,1.846,0.835,1.846,1.861v38.697H254.961z"/>
<rect x="110.874" y="304.87" style="fill:#CEE2F2;" width="139.75" height="33.774"/>
<g>
	<circle style="fill:#283A4D;" cx="237.363" cy="321.766" r="3.891"/>
	<rect x="125.594" y="313.395" style="fill:#283A4D;" width="3.415" height="3.412"/>
	<rect x="136.141" y="313.395" style="fill:#283A4D;" width="3.415" height="3.412"/>
	<rect x="146.688" y="313.395" style="fill:#283A4D;" width="3.42" height="3.412"/>
	<rect x="157.235" y="313.395" style="fill:#283A4D;" width="3.42" height="3.412"/>
	<rect x="167.782" y="313.395" style="fill:#283A4D;" width="3.4" height="3.412"/>
	<rect x="125.594" y="326.733" style="fill:#283A4D;" width="3.415" height="3.412"/>
	<rect x="136.141" y="326.733" style="fill:#283A4D;" width="3.415" height="3.412"/>
	<rect x="146.688" y="326.733" style="fill:#283A4D;" width="3.42" height="3.412"/>
	<rect x="157.235" y="326.733" style="fill:#283A4D;" width="3.42" height="3.412"/>
	<rect x="167.782" y="326.733" style="fill:#283A4D;" width="3.4" height="3.412"/>
	<rect x="130.714" y="320.051" style="fill:#283A4D;" width="3.418" height="3.412"/>
	<rect x="141.261" y="320.051" style="fill:#283A4D;" width="3.428" height="3.412"/>
	<rect x="151.808" y="320.051" style="fill:#283A4D;" width="3.42" height="3.412"/>
	<rect x="162.355" y="320.051" style="fill:#283A4D;" width="3.402" height="3.412"/>
	<rect x="172.877" y="320.051" style="fill:#283A4D;" width="3.412" height="3.412"/>
	<rect x="190.285" y="320.051" style="fill:#283A4D;" width="29.189" height="3.412"/>
	<rect x="254.95" y="306.355" style="fill:#283A4D;" width="6.159" height="30.797"/>
</g>
<g>
	<path style="fill:#B8D1E6;" d="M259.013,309.425c0,0.532-0.438,0.97-0.968,0.97c-0.538,0-0.983-0.438-0.983-0.97
		c0-0.556,0.445-0.983,0.983-0.983C258.575,308.442,259.013,308.869,259.013,309.425z"/>
	<path style="fill:#B8D1E6;" d="M259.013,334.118c0,0.527-0.438,0.97-0.968,0.97c-0.538,0-0.983-0.443-0.983-0.97
		c0-0.532,0.445-0.975,0.983-0.975C258.575,333.143,259.013,333.586,259.013,334.118z"/>
</g>
<rect x="100.403" y="306.355" style="fill:#283A4D;" width="6.159" height="30.797"/>
<g>
	<path style="fill:#B8D1E6;" d="M104.463,309.425c0,0.532-0.443,0.97-0.98,0.97s-0.973-0.438-0.973-0.97
		c0-0.556,0.435-0.983,0.973-0.983S104.463,308.869,104.463,309.425z"/>
	<path style="fill:#B8D1E6;" d="M104.463,334.118c0,0.527-0.443,0.97-0.98,0.97s-0.973-0.443-0.973-0.97
		c0-0.532,0.435-0.975,0.973-0.975S104.463,333.586,104.463,334.118z"/>
</g>
<g>
</g>
<g>
</g>
<g>
</g>
<g>
</g>
<g>
</g>
<g>
</g>
<g>
</g>
<g>
</g>
<g>
</g>
<g>
</g>
<g>
</g>
<g>
</g>
<g>
</g>
<g>
</g>
<g>
</g>
</svg>
